<mxfile host="65bd71144e">
    <diagram name="Page-1" id="brRHNtl02rwBg7Vy5JeA">
        <mxGraphModel dx="800" dy="1053" grid="1" gridSize="10" guides="1" tooltips="1" connect="1" arrows="1" fold="1" page="1" pageScale="1" pageWidth="850" pageHeight="1100" math="0" shadow="0">
            <root>
                <mxCell id="0"/>
                <mxCell id="1" parent="0"/>
                <mxCell id="xHftrx37MAazct8-W6wx-12" value="app.py" style="whiteSpace=wrap;html=1;verticalAlign=top;" parent="1" vertex="1">
                    <mxGeometry x="380" y="125" width="160" height="645" as="geometry"/>
                </mxCell>
                <mxCell id="2" style="edgeStyle=none;html=1;" edge="1" parent="1" source="xHftrx37MAazct8-W6wx-6" target="xHftrx37MAazct8-W6wx-22">
                    <mxGeometry relative="1" as="geometry"/>
                </mxCell>
                <mxCell id="xHftrx37MAazct8-W6wx-6" value=".env file" style="swimlane;fontStyle=0;childLayout=stackLayout;horizontal=1;startSize=30;horizontalStack=0;resizeParent=1;resizeParentMax=0;resizeLast=0;collapsible=1;marginBottom=0;whiteSpace=wrap;html=1;" parent="1" vertex="1">
                    <mxGeometry x="340" y="60" width="100" height="60" as="geometry"/>
                </mxCell>
                <mxCell id="xHftrx37MAazct8-W6wx-7" value="CALENDAR_ID" style="text;strokeColor=none;fillColor=none;align=left;verticalAlign=middle;spacingLeft=4;spacingRight=4;overflow=hidden;points=[[0,0.5],[1,0.5]];portConstraint=eastwest;rotatable=0;whiteSpace=wrap;html=1;" parent="xHftrx37MAazct8-W6wx-6" vertex="1">
                    <mxGeometry y="30" width="100" height="30" as="geometry"/>
                </mxCell>
                <mxCell id="3" style="edgeStyle=none;html=1;" edge="1" parent="1" source="xHftrx37MAazct8-W6wx-11" target="xHftrx37MAazct8-W6wx-22">
                    <mxGeometry relative="1" as="geometry"/>
                </mxCell>
                <mxCell id="xHftrx37MAazct8-W6wx-11" value="client_secret.json" style="rounded=1;arcSize=10;dashed=1;strokeColor=#ff0000;fillColor=none;gradientColor=none;dashPattern=8 4;strokeWidth=2;" parent="1" vertex="1">
                    <mxGeometry x="460" y="65" width="120" height="50" as="geometry"/>
                </mxCell>
                <mxCell id="4" style="edgeStyle=none;html=1;" edge="1" parent="1" source="xHftrx37MAazct8-W6wx-22" target="xHftrx37MAazct8-W6wx-32">
                    <mxGeometry relative="1" as="geometry"/>
                </mxCell>
                <mxCell id="5" style="edgeStyle=none;html=1;exitX=0.75;exitY=1;exitDx=0;exitDy=0;entryX=0.5;entryY=0;entryDx=0;entryDy=0;" edge="1" parent="1" source="xHftrx37MAazct8-W6wx-22" target="xHftrx37MAazct8-W6wx-34">
                    <mxGeometry relative="1" as="geometry"/>
                </mxCell>
                <mxCell id="xHftrx37MAazct8-W6wx-22" value="Authentication Class" style="whiteSpace=wrap;html=1;verticalAlign=top;" parent="1" vertex="1">
                    <mxGeometry x="405" y="190" width="120" height="30" as="geometry"/>
                </mxCell>
                <mxCell id="xHftrx37MAazct8-W6wx-27" value="Calendar API" style="swimlane;whiteSpace=wrap;html=1;" parent="1" vertex="1">
                    <mxGeometry x="120" y="120" width="150" height="640" as="geometry"/>
                </mxCell>
                <mxCell id="xHftrx37MAazct8-W6wx-18" value="Calendar API&lt;br&gt;" style="aspect=fixed;sketch=0;html=1;dashed=0;whitespace=wrap;fillColor=#2875E2;strokeColor=#ffffff;points=[[0.005,0.63,0],[0.1,0.2,0],[0.9,0.2,0],[0.5,0,0],[0.995,0.63,0],[0.72,0.99,0],[0.5,1,0],[0.28,0.99,0]];shape=mxgraph.kubernetes.icon2;prIcon=api;verticalAlign=top;horizontal=1;labelPosition=center;verticalLabelPosition=bottom;align=center;" parent="xHftrx37MAazct8-W6wx-27" vertex="1">
                    <mxGeometry x="50" y="56" width="50" height="48" as="geometry"/>
                </mxCell>
                <mxCell id="xHftrx37MAazct8-W6wx-50" value="Events" style="rounded=0;whiteSpace=wrap;html=1;" parent="xHftrx37MAazct8-W6wx-27" vertex="1">
                    <mxGeometry x="15" y="165" width="120" height="60" as="geometry"/>
                </mxCell>
                <mxCell id="xHftrx37MAazct8-W6wx-60" value="Converted Events&lt;br&gt;Deleted" style="rounded=0;whiteSpace=wrap;html=1;" parent="xHftrx37MAazct8-W6wx-27" vertex="1">
                    <mxGeometry x="15" y="485" width="120" height="60" as="geometry"/>
                </mxCell>
                <mxCell id="xHftrx37MAazct8-W6wx-28" value="Task API" style="swimlane;whiteSpace=wrap;html=1;" parent="1" vertex="1">
                    <mxGeometry x="630" y="120" width="150" height="650" as="geometry"/>
                </mxCell>
                <mxCell id="xHftrx37MAazct8-W6wx-19" value="Tasks API" style="aspect=fixed;sketch=0;html=1;dashed=0;whitespace=wrap;fillColor=#f5f5f5;strokeColor=#666666;points=[[0.005,0.63,0],[0.1,0.2,0],[0.9,0.2,0],[0.5,0,0],[0.995,0.63,0],[0.72,0.99,0],[0.5,1,0],[0.28,0.99,0]];shape=mxgraph.kubernetes.icon2;prIcon=api;verticalAlign=top;horizontal=1;labelPosition=center;verticalLabelPosition=bottom;align=center;fontColor=#333333;" parent="xHftrx37MAazct8-W6wx-28" vertex="1">
                    <mxGeometry x="50" y="56" width="50" height="48" as="geometry"/>
                </mxCell>
                <mxCell id="xHftrx37MAazct8-W6wx-51" value="Tasks" style="rounded=0;whiteSpace=wrap;html=1;" parent="xHftrx37MAazct8-W6wx-28" vertex="1">
                    <mxGeometry x="15" y="245" width="120" height="60" as="geometry"/>
                </mxCell>
                <mxCell id="xHftrx37MAazct8-W6wx-56" value="User Defined Tasklist" style="rounded=0;whiteSpace=wrap;html=1;" parent="xHftrx37MAazct8-W6wx-28" vertex="1">
                    <mxGeometry x="15" y="485" width="120" height="60" as="geometry"/>
                </mxCell>
                <mxCell id="xHftrx37MAazct8-W6wx-54" value="Collects all tasks&lt;br&gt;in defined date&lt;br&gt;range" style="edgeStyle=orthogonalEdgeStyle;rounded=0;orthogonalLoop=1;jettySize=auto;html=1;exitX=0;exitY=0.5;exitDx=0;exitDy=0;entryX=1;entryY=0.5;entryDx=0;entryDy=0;" parent="1" source="xHftrx37MAazct8-W6wx-32" target="xHftrx37MAazct8-W6wx-50" edge="1">
                    <mxGeometry relative="1" as="geometry"/>
                </mxCell>
                <mxCell id="xHftrx37MAazct8-W6wx-32" value="Calendar Class" style="whiteSpace=wrap;html=1;verticalAlign=top;" parent="1" vertex="1">
                    <mxGeometry x="405" y="300" width="110" height="30" as="geometry"/>
                </mxCell>
                <mxCell id="xHftrx37MAazct8-W6wx-53" value="Connects to Task API&lt;br&gt;User Selects a&amp;nbsp;&lt;br&gt;Tasklist" style="edgeStyle=orthogonalEdgeStyle;rounded=0;orthogonalLoop=1;jettySize=auto;html=1;exitX=1;exitY=0.5;exitDx=0;exitDy=0;entryX=0;entryY=0.5;entryDx=0;entryDy=0;" parent="1" source="xHftrx37MAazct8-W6wx-34" target="xHftrx37MAazct8-W6wx-51" edge="1">
                    <mxGeometry relative="1" as="geometry"/>
                </mxCell>
                <mxCell id="xHftrx37MAazct8-W6wx-34" value="Task Class" style="whiteSpace=wrap;html=1;verticalAlign=top;" parent="1" vertex="1">
                    <mxGeometry x="425" y="380" width="70" height="30" as="geometry"/>
                </mxCell>
                <mxCell id="xHftrx37MAazct8-W6wx-59" value="Converted&lt;br&gt;Tasks&lt;br&gt;Created" style="edgeStyle=orthogonalEdgeStyle;rounded=0;orthogonalLoop=1;jettySize=auto;html=1;exitX=1;exitY=0.5;exitDx=0;exitDy=0;entryX=0;entryY=0.5;entryDx=0;entryDy=0;" parent="1" source="xHftrx37MAazct8-W6wx-36" target="xHftrx37MAazct8-W6wx-56" edge="1">
                    <mxGeometry relative="1" as="geometry"/>
                </mxCell>
                <mxCell id="xHftrx37MAazct8-W6wx-63" value="Converted&lt;br&gt;Events&lt;br&gt;Deleted" style="edgeStyle=orthogonalEdgeStyle;rounded=0;orthogonalLoop=1;jettySize=auto;html=1;exitX=0;exitY=0.5;exitDx=0;exitDy=0;entryX=1;entryY=0.5;entryDx=0;entryDy=0;" parent="1" source="xHftrx37MAazct8-W6wx-36" target="xHftrx37MAazct8-W6wx-60" edge="1">
                    <mxGeometry relative="1" as="geometry"/>
                </mxCell>
                <mxCell id="xHftrx37MAazct8-W6wx-36" value="Converter Class" style="whiteSpace=wrap;html=1;verticalAlign=top;" parent="1" vertex="1">
                    <mxGeometry x="410" y="610" width="100" height="100" as="geometry"/>
                </mxCell>
                <mxCell id="xHftrx37MAazct8-W6wx-46" style="edgeStyle=orthogonalEdgeStyle;rounded=0;orthogonalLoop=1;jettySize=auto;html=1;exitX=0;exitY=0.5;exitDx=0;exitDy=0;entryX=0.995;entryY=0.63;entryDx=0;entryDy=0;entryPerimeter=0;" parent="1" source="xHftrx37MAazct8-W6wx-22" target="xHftrx37MAazct8-W6wx-18" edge="1">
                    <mxGeometry relative="1" as="geometry"/>
                </mxCell>
                <mxCell id="xHftrx37MAazct8-W6wx-49" value="Auth" style="edgeLabel;html=1;align=center;verticalAlign=middle;resizable=0;points=[];" parent="xHftrx37MAazct8-W6wx-46" vertex="1" connectable="0">
                    <mxGeometry x="-0.0668" y="-1" relative="1" as="geometry">
                        <mxPoint as="offset"/>
                    </mxGeometry>
                </mxCell>
                <mxCell id="xHftrx37MAazct8-W6wx-47" value="Auth" style="edgeStyle=orthogonalEdgeStyle;rounded=0;orthogonalLoop=1;jettySize=auto;html=1;exitX=1;exitY=0.5;exitDx=0;exitDy=0;entryX=0.005;entryY=0.63;entryDx=0;entryDy=0;entryPerimeter=0;" parent="1" source="xHftrx37MAazct8-W6wx-22" target="xHftrx37MAazct8-W6wx-19" edge="1">
                    <mxGeometry relative="1" as="geometry"/>
                </mxCell>
                <mxCell id="xHftrx37MAazct8-W6wx-62" style="edgeStyle=orthogonalEdgeStyle;rounded=0;orthogonalLoop=1;jettySize=auto;html=1;exitX=0;exitY=0.5;exitDx=0;exitDy=0;entryX=0.25;entryY=0;entryDx=0;entryDy=0;" parent="1" source="xHftrx37MAazct8-W6wx-55" target="xHftrx37MAazct8-W6wx-36" edge="1">
                    <mxGeometry relative="1" as="geometry">
                        <Array as="points">
                            <mxPoint x="390" y="465"/>
                            <mxPoint x="390" y="550"/>
                            <mxPoint x="435" y="550"/>
                        </Array>
                    </mxGeometry>
                </mxCell>
                <mxCell id="xHftrx37MAazct8-W6wx-55" value="User Defined&amp;nbsp;&lt;br&gt;list of events&lt;br&gt;to convert to task" style="image;aspect=fixed;perimeter=ellipsePerimeter;html=1;align=center;shadow=0;dashed=0;spacingTop=3;image=img/lib/active_directory/list.svg;" parent="1" vertex="1">
                    <mxGeometry x="442.5" y="440" width="35" height="50" as="geometry"/>
                </mxCell>
            </root>
        </mxGraphModel>
    </diagram>
</mxfile>